<svg xmlns="http://www.w3.org/2000/svg" xmlns:xlink="http://www.w3.org/1999/xlink" viewBox="0 0 338 312"><defs><style>.cls-1{fill:url(#Nieuw_verloopstaal_1);}.cls-2{fill:url(#Naamloos_verloop_137);}.cls-3{fill:url(#Naamloos_verloop_23);}</style><linearGradient id="Nieuw_verloopstaal_1" x1="45.77" y1="-54.54" x2="276.09" y2="138.72" gradientUnits="userSpaceOnUse"><stop offset="0" stop-color="#35c2fd"/><stop offset="0.8" stop-color="#3432f3"/><stop offset="0.97" stop-color="#00002a"/></linearGradient><linearGradient id="Naamloos_verloop_137" x1="117.72" y1="58.47" x2="337.58" y2="242.96" gradientUnits="userSpaceOnUse"><stop offset="0" stop-color="#35c2fd"/><stop offset="0.78" stop-color="#3432f3"/><stop offset="0.96" stop-color="#01002a"/></linearGradient><linearGradient id="Naamloos_verloop_23" x1="139.34" y1="247.33" x2="338" y2="247.33" gradientUnits="userSpaceOnUse"><stop offset="0" stop-color="#35c2fd"/><stop offset="0.8" stop-color="#3432f3"/></linearGradient></defs><g id="Laag_2" data-name="Laag 2"><g id="Laag_19" data-name="Laag 19"><path class="cls-1" d="M0,0,46.33,69.11H219v58.26h66.61V54C286,13,263,0,238,0Z"/><path class="cls-2" d="M69.85,115.52,114,184.63H266v58.26h71.64V174.63C337.64,167,338,116,286,116l-.39-.48V70.1L219,116Z"/><path class="cls-3" d="M139.34,242.89,183.83,312H299.4c20.71,0,37.65-22.82,38.24-51.49l.36-77.85L266,243Z"/></g></g></svg>